<?xml version="1.0" encoding="UTF-8" standalone="no"?>
<!DOCTYPE svg PUBLIC "-//W3C//DTD SVG 20010904//EN"
              "http://www.w3.org/TR/2001/REC-SVG-20010904/DTD/svg10.dtd">

<svg xmlns="http://www.w3.org/2000/svg"
     width="16.4154in" height="12.2462in"
     viewBox="0 0 2134 1592">
  <path id="Selección"
        fill="none" stroke="black" stroke-width="1"
        d="M 1049.94,233.81
           C 1069.06,252.06 1628.77,806.03 1626.09,812.97
             1625.12,815.47 1054.38,1385.31 1051.12,1385.77
             1046.58,1386.40 475.02,814.68 474.92,810.88
             474.82,806.93 1030.06,251.88 1049.94,233.81 Z
           M 1046.21,265.04
           C 1046.21,265.04 853.95,602.85 853.95,602.85
             853.95,602.85 1155.34,682.53 1155.34,682.53
             1155.34,682.53 1046.21,265.04 1046.21,265.04 Z
           M 1070.46,278.90
           C 1070.46,278.90 1178.83,687.58 1178.83,687.58
             1178.83,687.58 1584.91,795.13 1584.91,795.13
             1584.91,795.13 1070.46,278.90 1070.46,278.90 Z
           M 1011.57,297.96
           C 1011.57,297.96 538.70,770.88 538.70,770.88
             538.70,770.88 839.44,602.17 839.44,602.17
             839.44,602.17 1011.57,297.96 1011.57,297.96 Z
           M 1240.21,999.55
           C 1240.21,999.55 1159.28,697.40 1159.28,697.40
             1159.28,697.40 853.95,614.97 853.95,614.97
             853.95,614.97 931.28,914.25 936.10,917.98
             940.39,921.31 1240.21,999.55 1240.21,999.55 Z
           M 841.82,616.71
           C 841.82,616.71 505.79,803.80 505.79,803.80
             505.79,803.80 919.77,914.66 919.77,914.66
             919.77,914.66 841.82,616.71 841.82,616.71 Z
           M 1183.05,701.59
           C 1181.11,708.75 1259.27,997.82 1259.27,997.82
             1259.27,997.82 1591.84,810.72 1591.84,810.72
             1591.84,810.72 1183.05,701.59 1183.05,701.59 Z
           M 516.18,826.32
           C 516.18,826.32 1034.09,1346.01 1034.09,1346.01
             1033.04,1333.49 929.46,941.67 924.09,936.66
             918.68,931.63 516.18,826.32 516.18,826.32 Z
           M 1562.39,850.57
           C 1562.39,850.57 1261.67,1019.52 1261.67,1019.52
             1261.67,1019.52 1091.25,1321.76 1091.25,1321.76
             1091.25,1321.76 1562.39,850.57 1562.39,850.57 Z
           M 940.55,938.92
           C 939.42,945.18 1044.88,1345.29 1051.41,1352.94
             1051.41,1352.94 1238.48,1018.60 1238.48,1018.60
             1238.48,1018.60 940.55,938.92 940.55,938.92 Z" />
</svg>
